HIERARCHY
ROOT Hips
{
	OFFSET 0.717293 88.513641 3.606412
	CHANNELS 6 Xposition Yposition Zposition Zrotation Yrotation Xrotation 
	JOINT Spine
	{
		OFFSET -0.000000 8.814246 -2.080107
		CHANNELS 3 Zrotation Yrotation Xrotation
		JOINT Spine1
		{
			OFFSET -0.000000 8.844141 -0.000000
			CHANNELS 3 Zrotation Yrotation Xrotation
			JOINT Spine2
			{
				OFFSET 0.000000 11.682268 0.000000
				CHANNELS 3 Zrotation Yrotation Xrotation
				JOINT Spine3
				{
					OFFSET 0.000000 11.746700 -0.000000
					CHANNELS 3 Zrotation Yrotation Xrotation
					JOINT Neck
					{
						OFFSET 0.000000 17.658264 0.000000
						CHANNELS 3 Zrotation Yrotation Xrotation
						JOINT Neck1
						{
							OFFSET -0.000000 5.101515 -0.000000
							CHANNELS 3 Zrotation Yrotation Xrotation
							JOINT Head
							{
								OFFSET -0.000000 5.101515 -0.000000
								CHANNELS 3 Zrotation Yrotation Xrotation
								JOINT HeadEnd
								{
									OFFSET -0.000000 11.655085 -0.000000
									CHANNELS 3 Zrotation Yrotation Xrotation
									End Site
									{
										OFFSET 0.000000 0.000000 0.000000
									}
								}
							}
						}
					}
					JOINT RightShoulder
					{
						OFFSET -2.625389 11.175210 -0.000000
						CHANNELS 3 Zrotation Yrotation Xrotation
						JOINT RightArm
						{
							OFFSET 0.000000 10.434715 0.000000
							CHANNELS 3 Zrotation Yrotation Xrotation
							JOINT RightForeArm
							{
								OFFSET 0.000000 29.628420 0.000000
								CHANNELS 3 Zrotation Yrotation Xrotation
								JOINT RightHand
								{
									OFFSET 0.000000 22.857611 -0.000000
									CHANNELS 3 Zrotation Yrotation Xrotation
									JOINT RightHandThumb1
									{
										OFFSET -2.867323 3.959563 2.944291
										CHANNELS 3 Zrotation Yrotation Xrotation
										JOINT RightHandThumb2
										{
											OFFSET 0.000000 3.350399 -0.000000
											CHANNELS 3 Zrotation Yrotation Xrotation
											JOINT RightHandThumb3
											{
												OFFSET 0.000000 3.756509 -0.000000
												CHANNELS 3 Zrotation Yrotation Xrotation
												JOINT RightHandThumb4
												{
													OFFSET -0.000000 3.147345 -0.000000
													CHANNELS 3 Zrotation Yrotation Xrotation
													End Site
													{
														OFFSET 0.000000 0.000000 0.000000
													}
												}
											}
										}
									}
									JOINT RightHandIndex1
									{
										OFFSET -0.086752 10.030893 2.345280
										CHANNELS 3 Zrotation Yrotation Xrotation
										JOINT RightHandIndex2
										{
											OFFSET -0.000000 4.061090 -0.000000
											CHANNELS 3 Zrotation Yrotation Xrotation
											JOINT RightHandIndex3
											{
												OFFSET -0.000000 3.248873 0.000000
												CHANNELS 3 Zrotation Yrotation Xrotation
												JOINT RightHandIndex4
												{
													OFFSET -0.000000 2.639709 0.000000
													CHANNELS 3 Zrotation Yrotation Xrotation
													End Site
													{
														OFFSET 0.000000 0.000000 0.000000
													}
												}
											}
										}
									}
									JOINT RightHandMiddle1
									{
										OFFSET 0.104102 9.502952 0.006768
										CHANNELS 3 Zrotation Yrotation Xrotation
										JOINT RightHandMiddle2
										{
											OFFSET 0.000000 4.568727 -0.000000
											CHANNELS 3 Zrotation Yrotation Xrotation
											JOINT RightHandMiddle3
											{
												OFFSET 0.000000 3.654981 -0.000000
												CHANNELS 3 Zrotation Yrotation Xrotation
												JOINT RightHandMiddle4
												{
													OFFSET 0.000000 2.741236 0.000000
													CHANNELS 3 Zrotation Yrotation Xrotation
													End Site
													{
														OFFSET 0.000000 0.000000 0.000000
													}
												}
											}
										}
									}
									JOINT RightHandRing1
									{
										OFFSET 0.086752 8.921708 -2.267442
										CHANNELS 3 Zrotation Yrotation Xrotation
										JOINT RightHandRing2
										{
											OFFSET -0.000000 4.061090 -0.000000
											CHANNELS 3 Zrotation Yrotation Xrotation
											JOINT RightHandRing3
											{
												OFFSET -0.000000 3.654981 0.000000
												CHANNELS 3 Zrotation Yrotation Xrotation
												JOINT RightHandRing4
												{
													OFFSET -0.000000 2.741236 0.000000
													CHANNELS 3 Zrotation Yrotation Xrotation
													End Site
													{
														OFFSET 0.000000 0.000000 0.000000
													}
												}
											}
										}
									}
									JOINT RightHandPinky1
									{
										OFFSET -0.173504 7.976997 -4.467199
										CHANNELS 3 Zrotation Yrotation Xrotation
										JOINT RightHandPinky2
										{
											OFFSET -0.000000 3.350399 -0.000000
											CHANNELS 3 Zrotation Yrotation Xrotation
											JOINT RightHandPinky3
											{
												OFFSET -0.000000 2.842763 0.000000
												CHANNELS 3 Zrotation Yrotation Xrotation
												JOINT RightHandPinky4
												{
													OFFSET 0.000000 2.639709 -0.000000
													CHANNELS 3 Zrotation Yrotation Xrotation
													End Site
													{
														OFFSET 0.000000 0.000000 0.000000
													}
												}
											}
										}
									}
									JOINT RightForeArmEnd
									{
										OFFSET 0.000000 0.000000 0.000000
										CHANNELS 3 Zrotation Yrotation Xrotation
										End Site
										{
											OFFSET 0.000000 0.000000 0.000000
										}
									}
								}
								JOINT RightArmEnd
								{
									OFFSET 0.000000 0.000000 0.000000
									CHANNELS 3 Zrotation Yrotation Xrotation
									End Site
									{
										OFFSET 0.000000 0.000000 0.000000
									}
								}
							}
						}
					}
					JOINT LeftShoulder
					{
						OFFSET 2.625389 11.175210 -0.000000
						CHANNELS 3 Zrotation Yrotation Xrotation
						JOINT LeftArm
						{
							OFFSET 0.000000 10.813635 0.000000
							CHANNELS 3 Zrotation Yrotation Xrotation
							JOINT LeftForeArm
							{
								OFFSET -0.000000 28.724781 -0.000000
								CHANNELS 3 Zrotation Yrotation Xrotation
								JOINT LeftHand
								{
									OFFSET 0.644384 25.716167 -0.328871
									CHANNELS 3 Zrotation Yrotation Xrotation
									JOINT LeftHandThumb1
									{
										OFFSET 2.867323 3.959563 2.944291
										CHANNELS 3 Zrotation Yrotation Xrotation
										JOINT LeftHandThumb2
										{
											OFFSET 0.000000 3.350399 0.000000
											CHANNELS 3 Zrotation Yrotation Xrotation
											JOINT LeftHandThumb3
											{
												OFFSET 0.000000 3.756509 0.000000
												CHANNELS 3 Zrotation Yrotation Xrotation
												JOINT LeftHandThumb4
												{
													OFFSET -0.000000 3.100000 0.000000
													CHANNELS 3 Zrotation Yrotation Xrotation
													End Site
													{
														OFFSET 0.000000 0.000000 0.000000
													}
												}
											}
										}
									}
									JOINT LeftHandIndex1
									{
										OFFSET 0.086752 10.030893 2.345280
										CHANNELS 3 Zrotation Yrotation Xrotation
										JOINT LeftHandIndex2
										{
											OFFSET -0.000000 4.061090 -0.000000
											CHANNELS 3 Zrotation Yrotation Xrotation
											JOINT LeftHandIndex3
											{
												OFFSET -0.000000 3.248873 -0.000000
												CHANNELS 3 Zrotation Yrotation Xrotation
												JOINT LeftHandIndex4
												{
													OFFSET -0.000000 2.639709 -0.000000
													CHANNELS 3 Zrotation Yrotation Xrotation
													End Site
													{
														OFFSET 0.000000 0.000000 0.000000
													}
												}
											}
										}
									}
									JOINT LeftHandMiddle1
									{
										OFFSET -0.104102 9.502952 0.006768
										CHANNELS 3 Zrotation Yrotation Xrotation
										JOINT LeftHandMiddle2
										{
											OFFSET 0.000000 4.568727 -0.000000
											CHANNELS 3 Zrotation Yrotation Xrotation
											JOINT LeftHandMiddle3
											{
												OFFSET 0.000000 3.654981 0.000000
												CHANNELS 3 Zrotation Yrotation Xrotation
												JOINT LeftHandMiddle4
												{
													OFFSET 0.000000 2.741236 0.000000
													CHANNELS 3 Zrotation Yrotation Xrotation
													End Site
													{
														OFFSET 0.000000 0.000000 0.000000
													}
												}
											}
										}
									}
									JOINT LeftHandRing1
									{
										OFFSET -0.086752 8.921708 -2.267442
										CHANNELS 3 Zrotation Yrotation Xrotation
										JOINT LeftHandRing2
										{
											OFFSET -0.000000 4.061090 -0.000000
											CHANNELS 3 Zrotation Yrotation Xrotation
											JOINT LeftHandRing3
											{
												OFFSET 0.000000 3.654981 0.000000
												CHANNELS 3 Zrotation Yrotation Xrotation
												JOINT LeftHandRing4
												{
													OFFSET -0.000000 2.741236 -0.000000
													CHANNELS 3 Zrotation Yrotation Xrotation
													End Site
													{
														OFFSET 0.000000 0.000000 0.000000
													}
												}
											}
										}
									}
									JOINT LeftHandPinky1
									{
										OFFSET 0.173504 7.976997 -4.467199
										CHANNELS 3 Zrotation Yrotation Xrotation
										JOINT LeftHandPinky2
										{
											OFFSET 0.000000 3.350399 -0.000000
											CHANNELS 3 Zrotation Yrotation Xrotation
											JOINT LeftHandPinky3
											{
												OFFSET 0.000000 2.842763 0.000000
												CHANNELS 3 Zrotation Yrotation Xrotation
												JOINT LeftHandPinky4
												{
													OFFSET -0.000000 2.639709 -0.000000
													CHANNELS 3 Zrotation Yrotation Xrotation
													End Site
													{
														OFFSET 0.000000 0.000000 0.000000
													}
												}
											}
										}
									}
									JOINT LeftForeArmEnd
									{
										OFFSET 0.000000 0.000000 0.000000
										CHANNELS 3 Zrotation Yrotation Xrotation
										End Site
										{
											OFFSET 0.000000 0.000000 0.000000
										}
									}
								}
								JOINT LeftArmEnd
								{
									OFFSET 0.000000 0.000000 0.000000
									CHANNELS 3 Zrotation Yrotation Xrotation
									End Site
									{
										OFFSET 0.000000 0.000000 0.000000
									}
								}
							}
						}
					}
				}
			}
		}
	}
	JOINT RightUpLeg
	{
		OFFSET -11.289943 0.000000 -0.000000
		CHANNELS 3 Zrotation Yrotation Xrotation
		JOINT RightLeg
		{
			OFFSET 0.000000 -38.200325 -0.000000
			CHANNELS 3 Zrotation Yrotation Xrotation
			JOINT RightFoot
			{
				OFFSET -0.000000 -39.900856 -0.000000
				CHANNELS 3 Zrotation Yrotation Xrotation
				JOINT RightToeBase
				{
					OFFSET -0.000000 0.000000 15.261641
					CHANNELS 3 Zrotation Yrotation Xrotation
					JOINT RightToeBaseEnd
					{
						OFFSET 0.000000 0.000000 7.370709
						CHANNELS 3 Zrotation Yrotation Xrotation
						End Site
						{
							OFFSET 0.000000 0.000000 0.000000
						}
					}
				}
				JOINT RightLegEnd
				{
					OFFSET 0.000000 0.000000 0.000000
					CHANNELS 3 Zrotation Yrotation Xrotation
					End Site
					{
						OFFSET 0.000000 0.000000 0.000000
					}
				}
			}
			JOINT RightUpLegEnd
			{
				OFFSET 0.000000 0.000000 0.000000
				CHANNELS 3 Zrotation Yrotation Xrotation
				End Site
				{
					OFFSET 0.000000 0.000000 0.000000
				}
			}
		}
	}
	JOINT LeftUpLeg
	{
		OFFSET 11.315661 -0.000000 -0.000000
		CHANNELS 3 Zrotation Yrotation Xrotation
		JOINT LeftLeg
		{
			OFFSET 0.000000 -38.200325 0.000000
			CHANNELS 3 Zrotation Yrotation Xrotation
			JOINT LeftFoot
			{
				OFFSET 0.000000 -39.900856 0.000000
				CHANNELS 3 Zrotation Yrotation Xrotation
				JOINT LeftToeBase
				{
					OFFSET 0.000000 -0.000000 15.261641
					CHANNELS 3 Zrotation Yrotation Xrotation
					JOINT LeftToeBaseEnd
					{
						OFFSET -0.000000 0.000000 7.539996
						CHANNELS 3 Zrotation Yrotation Xrotation
						End Site
						{
							OFFSET 0.000000 0.000000 0.000000
						}
					}
				}
				JOINT LeftLegEnd
				{
					OFFSET 0.000000 0.000000 0.000000
					CHANNELS 3 Zrotation Yrotation Xrotation
					End Site
					{
						OFFSET 0.000000 0.000000 0.000000
					}
				}
			}
			JOINT LeftUpLegEnd
			{
				OFFSET 0.000000 0.000000 0.000000
				CHANNELS 3 Zrotation Yrotation Xrotation
				End Site
				{
					OFFSET 0.000000 0.000000 0.000000
				}
			}
		}
	}
}
MOTION
Frames: 4
Frame Time: 0.016667
0.717293 88.513641 3.606412 -0.807625 -0.145498 -10.211953 2.974575 -0.200603 8.045942 0.343280 -0.161376 3.810282 0.356144 -1.985393 3.162312 -0.570617 -0.651933 1.640799 0.102534 -1.376300 4.726995 -0.786954 -0.955029 -2.695320 -0.607556 -0.996725 -19.207796 0.000000 0.000000 0.000000 90.633385 -0.099940 10.407545 65.336456 -33.843838 4.224480 -0.450088 10.791811 20.358622 7.570276 13.503039 -6.307324 10.937046 -1.865515 39.738762 0.000000 0.000000 -26.639997 0.000000 0.000000 -18.499998 0.000000 0.000000 0.000000 13.612741 0.000000 -9.950699 9.528920 0.000000 0.000000 9.528920 0.000000 0.000000 0.000000 0.000000 0.000000 12.607718 -0.000000 -10.819229 8.825400 0.000000 0.000000 8.825400 0.000000 0.000000 0.000000 0.000000 0.000000 14.150433 -0.000000 -9.929859 9.905301 0.000000 0.000000 9.905301 0.000000 0.000000 0.000000 0.000000 0.000000 14.986264 0.000000 -10.561732 10.490384 0.000000 0.000000 10.490384 0.000000 0.000000 0.000000 0.000000 0.000000 0.000000 0.000000 0.000000 0.000000 0.000000 0.000000 -87.418159 -0.270548 6.233880 -75.998817 26.272923 -6.204398 -0.339548 -5.544444 38.662571 0.678041 -17.794977 -13.609646 -10.637670 1.840800 39.870983 0.000000 0.000000 -25.919998 0.000000 0.000000 -18.000004 0.000000 0.000000 0.000000 -12.784686 -0.000000 -9.414296 -8.949280 0.000000 0.000000 -8.949280 0.000000 0.000000 0.000000 0.000000 0.000000 -12.048728 -0.000000 -10.392732 -8.434110 0.000000 0.000000 -8.434110 0.000000 0.000000 0.000000 0.000000 0.000000 -13.654737 -0.000000 -11.575627 -9.558316 0.000000 0.000000 -9.558316 0.000000 0.000000 0.000000 0.000000 0.000000 -14.250447 -0.000000 -12.885098 -9.975311 0.000000 0.000000 -9.975311 0.000000 0.000000 0.000000 0.000000 0.000000 0.000000 0.000000 0.000000 0.000000 0.000000 0.000000 1.136141 -14.518364 12.126021 -0.031131 -0.345450 4.775295 -3.873879 -13.260001 19.727701 -0.519588 0.644877 -18.908152 0.000000 0.000000 0.000000 0.000000 0.000000 0.000000 0.000000 0.000000 0.000000 8.610489 -1.127510 2.905101 0.263057 0.928557 15.818080 -1.732145 6.252617 17.146843 1.232856 -0.489963 -24.107113 0.000000 0.000000 0.000000 0.000000 0.000000 0.000000 0.000000 0.000000 0.000000 
0.709327 87.917984 3.348397 -1.261993 -0.327941 -9.618973 3.517845 -0.723177 7.009367 1.350597 -0.520521 4.820371 -0.480579 -1.463663 2.443438 -1.179321 -0.575366 3.754542 -0.414796 -0.436511 3.892312 -0.801256 -0.702677 -3.653186 -0.743638 -0.869545 -18.185755 0.000000 0.000000 0.000000 89.900368 -0.208444 9.728550 65.310173 -32.001465 5.827738 -0.146640 12.980621 20.553436 7.694291 11.452761 -4.934817 10.807630 -1.878305 39.659637 -0.000000 0.000032 -26.421694 0.000006 0.000043 -18.066942 0.000008 -0.000004 -0.000025 13.110900 0.019370 -10.015302 9.152577 -0.058050 0.060910 9.173505 -0.030962 0.038885 -0.000029 0.000046 -0.000034 12.609044 0.014010 -10.995051 8.593370 -0.025861 0.011174 8.678179 -0.006420 0.007291 0.000027 0.000003 0.000007 14.802829 -0.058562 -10.569443 9.732193 0.031377 0.047463 9.718736 -0.001139 0.028534 -0.000018 0.000426 0.000021 15.461308 -0.143119 -11.554858 10.409041 0.040127 0.350998 10.218506 -0.021262 0.279478 0.000348 -0.000005 0.000007 0.000000 0.000000 0.000000 0.000000 0.000000 0.000000 -87.101692 -0.221405 6.886816 -74.504295 25.831223 -5.367500 -0.504897 -8.984839 39.790974 1.446155 -15.394887 -13.955625 -10.399466 1.817760 39.809868 -0.000006 0.000026 -25.540020 -0.000060 -0.000024 -17.588739 -0.000605 -0.000007 0.000342 -13.015335 0.111186 -9.422231 -8.989340 -0.041539 0.002004 -9.208839 -0.014791 -0.001270 0.000010 -0.000107 -0.000014 -12.222811 0.046394 -10.325005 -8.681915 -0.027098 0.007380 -8.451934 -0.002103 0.013292 -0.000187 -0.000029 -0.000093 -13.666159 -0.013844 -10.929009 -9.709910 0.046425 -0.077150 -9.574558 0.005748 -0.044137 0.000479 0.000009 0.000004 -13.625988 -0.092248 -11.899431 -10.068452 0.060580 -0.185189 -10.077414 -0.007950 -0.171277 0.000054 -0.000013 -0.000031 0.000000 0.000000 0.000000 0.000000 0.000000 0.000000 1.786918 -14.813228 11.589244 0.017251 -0.421554 4.956248 -5.151711 -13.664532 20.198215 -0.767786 0.552496 -18.867594 0.000000 0.000000 0.000000 0.000000 0.000000 0.000000 0.000000 0.000000 0.000000 8.370293 -0.392637 3.743093 0.284769 0.914312 14.829424 -3.149044 6.020978 21.882475 0.810709 -0.449131 -22.979265 0.000000 0.000000 0.000000 0.000000 0.000000 0.000000 0.000000 0.000000 0.000000 
0.626977 87.893242 3.298183 -1.225836 -0.148286 -9.698204 3.524279 -0.722358 6.987369 1.341878 -0.514532 4.908784 -0.526438 -1.446317 2.410606 -1.155715 -0.573938 3.878841 -0.353305 -0.496594 3.943837 -0.808061 -0.751022 -3.575670 -0.756388 -0.866384 -18.210810 0.000000 0.000000 0.000000 89.972153 -0.227523 9.729899 65.159019 -31.752493 5.883125 -0.159771 13.064897 20.700062 7.769835 11.446047 -5.169916 10.773591 -1.876323 39.679119 -0.000007 0.000053 -26.300463 0.000019 0.000036 -17.988592 0.000020 0.000006 -0.000043 12.983137 0.021754 -9.878720 9.035772 -0.060429 0.061473 9.032603 -0.032205 0.041565 -0.000009 0.000060 -0.000025 12.472592 0.014352 -10.898928 8.492288 -0.027553 0.012897 8.567369 -0.007053 0.008199 0.000021 -0.000016 -0.000009 14.643879 -0.060722 -10.497639 9.627147 0.033293 0.038992 9.623875 0.000726 0.022268 -0.000025 0.000410 0.000002 15.325180 -0.147995 -11.488750 10.353169 0.047963 0.324638 10.155873 -0.016277 0.262515 0.000388 0.000006 0.000011 0.000000 0.000000 0.000000 0.000000 0.000000 0.000000 -87.085457 -0.234221 6.816131 -74.472641 25.735325 -5.251178 -0.492354 -9.000042 39.930607 1.185672 -15.227874 -13.992848 -10.335684 1.804702 39.839596 0.000013 0.000029 -25.397978 -0.000061 -0.000011 -17.489115 -0.000733 0.000005 0.000256 -12.736231 0.117238 -9.437468 -8.888449 -0.042462 0.001113 -9.101353 -0.015295 -0.004811 0.000023 -0.000063 -0.000005 -11.932060 0.048573 -10.376924 -8.610837 -0.027607 0.004525 -8.383452 -0.002256 0.012648 -0.000282 -0.000020 -0.000114 -13.413748 -0.013685 -11.038826 -9.659544 0.047041 -0.074472 -9.525345 0.006192 -0.042113 0.000495 0.000015 0.000010 -13.436088 -0.092987 -12.030191 -10.062411 0.061216 -0.174590 -10.088835 -0.007097 -0.162312 0.000073 0.000010 -0.000052 0.000000 0.000000 0.000000 0.000000 0.000000 0.000000 1.809306 -15.023702 11.565479 0.016757 -0.411356 4.939066 -5.308536 -13.681875 20.169025 -0.749742 0.534306 -18.890114 0.000000 0.000000 0.000000 0.000000 0.000000 0.000000 0.000000 0.000000 0.000000 8.525859 -0.408604 3.542599 0.292147 0.930421 14.930041 -3.244973 5.788689 21.956131 0.822345 -0.464425 -23.068617 0.000000 0.000000 0.000000 0.000000 0.000000 0.000000 0.000000 0.000000 0.000000 
0.560919 87.876717 3.256952 -1.165667 0.024339 -9.764007 3.516380 -0.710643 6.987875 1.349489 -0.512780 4.932479 -0.590710 -1.370671 2.435344 -1.147497 -0.553285 3.939026 -0.347731 -0.511444 3.965753 -0.811246 -0.786640 -3.521581 -0.756044 -0.863234 -18.246698 0.000000 0.000000 0.000000 89.992531 -0.216736 9.785867 65.232468 -31.344463 5.753346 -0.176214 13.271648 21.098930 7.575203 11.386901 -5.359816 10.745835 -1.875000 39.694672 -0.000007 0.000053 -26.202927 0.000018 0.000037 -17.926374 0.000020 0.000005 -0.000043 12.820337 0.022568 -9.800501 8.939919 -0.061896 0.059678 8.913990 -0.032508 0.041616 -0.000009 0.000061 -0.000026 12.316077 0.013849 -10.861886 8.412621 -0.028475 0.013479 8.484906 -0.007454 0.008323 0.000020 -0.000015 -0.000008 14.499369 -0.061644 -10.506002 9.540029 0.034196 0.032789 9.543516 0.001875 0.017780 -0.000023 0.000491 0.000002 15.196285 -0.147992 -11.528266 10.295068 0.053033 0.306915 10.096463 -0.014268 0.250160 0.000435 0.000006 0.000004 0.000000 0.000000 0.000000 0.000000 0.000000 0.000000 -87.036598 -0.240449 6.776618 -74.462311 25.620167 -5.166506 -0.473287 -9.048845 40.123917 1.150545 -15.051079 -13.923010 -10.292192 1.797214 39.859627 0.000014 0.000029 -25.306856 -0.000059 -0.000011 -17.421949 -0.000788 0.000005 0.000200 -12.530692 0.118574 -9.341771 -8.798193 -0.043124 0.001478 -9.003630 -0.015587 -0.006611 0.000020 -0.000003 -0.000005 -11.729768 0.049059 -10.326604 -8.547265 -0.028260 0.002356 -8.323880 -0.002413 0.012298 -0.000350 -0.000019 -0.000128 -13.246454 -0.012129 -11.059484 -9.611260 0.047663 -0.072178 -9.484808 0.006412 -0.039948 0.000486 0.000014 0.000010 -13.341216 -0.093735 -12.088133 -10.048173 0.061868 -0.166493 -10.088675 -0.006941 -0.151890 0.000073 0.000010 -0.000052 0.000000 0.000000 0.000000 0.000000 0.000000 0.000000 1.789321 -15.189610 11.558461 0.017119 -0.404108 4.919132 -5.432952 -13.728357 20.147219 -0.741634 0.521574 -18.899828 0.000000 0.000000 0.000000 0.000000 0.000000 0.000000 0.000000 0.000000 0.000000 8.602229 -0.448395 3.417298 0.295990 0.941648 14.963661 -3.312502 5.599804 22.015276 0.831223 -0.476982 -23.131033 0.000000 0.000000 0.000000 0.000000 0.000000 0.000000 0.000000 0.000000 0.000000 
